<svg width="38" height="38" xmlns="http://www.w3.org/2000/svg" xmlns:xlink="http://www.w3.org/1999/xlink" xml:space="preserve" overflow="hidden"><defs><clipPath id="clip0"><rect x="119" y="11" width="38" height="38"/></clipPath></defs><g clip-path="url(#clip0)" transform="translate(-119 -11)"><path d="M147.896 21.203 147.896 17.3333 143.341 17.3333 138 12.8604 132.659 17.3333 128.104 17.3333 128.104 21.203 122.958 25.4594 122.958 46.625 153.042 46.625 153.042 25.4594ZM147.896 22.2322 152.058 25.6759 147.896 29.8361ZM138 13.8916 142.108 17.3333 133.892 17.3333ZM128.896 18.125 147.104 18.125 147.104 30.6278 142.334 35.3976C139.832 33.2818 136.168 33.2818 133.666 35.3976L128.896 30.6278ZM128.104 22.2306 128.104 29.8361 123.942 25.6735ZM123.757 26.6081 133.086 35.9375 123.757 45.2669C123.755 45.2684 123.753 45.2684 123.751 45.2669 123.75 45.2661 123.75 45.2652 123.75 45.2641L123.75 26.6109C123.75 26.6087 123.752 26.607 123.754 26.607 123.755 26.607 123.756 26.6074 123.757 26.6081ZM124.316 45.8266 133.674 36.4691C134.774 35.338 136.265 34.6709 137.842 34.6047 139.472 34.5563 141.05 35.1851 142.2 36.3416L151.684 45.8266C151.685 45.8281 151.685 45.8307 151.684 45.8322 151.683 45.8329 151.682 45.8333 151.681 45.8333L124.319 45.8333C124.317 45.8333 124.315 45.8315 124.315 45.8293 124.315 45.8283 124.316 45.8273 124.316 45.8266ZM152.243 45.2669 142.914 35.9375 152.243 26.6081C152.245 26.6066 152.247 26.6066 152.249 26.6081 152.25 26.6089 152.25 26.6098 152.25 26.6109L152.25 45.2641C152.25 45.2663 152.248 45.268 152.246 45.268 152.245 45.268 152.244 45.2676 152.243 45.2669Z"/><path d="M132.062 21.6875 143.938 21.6875 143.938 22.4792 132.062 22.4792Z"/><path d="M132.062 24.0625 143.938 24.0625 143.938 24.8542 132.062 24.8542Z"/><path d="M132.062 26.4375 143.938 26.4375 143.938 27.2292 132.062 27.2292Z"/><path d="M132.062 28.8125 143.938 28.8125 143.938 29.6042 132.062 29.6042Z"/></g></svg>