<svg width="38" height="38" xmlns="http://www.w3.org/2000/svg" xmlns:xlink="http://www.w3.org/1999/xlink" xml:space="preserve" overflow="hidden"><defs><clipPath id="clip0"><rect x="772" y="535" width="38" height="38"/></clipPath></defs><g clip-path="url(#clip0)" transform="translate(-772 -535)"><path d="M800.118 548.849 794.167 548.849 794.167 549.641 799.59 549.641 803.536 559.168 794.149 559.168 794.145 559.464C794.143 561.018 793.03 562.349 791.501 562.625 789.779 562.9 788.16 561.726 787.886 560.004 787.863 559.857 787.85 559.708 787.847 559.559L787.842 559.168 778.455 559.168 782.402 549.641 787.833 549.641 787.833 548.849 781.873 548.849 777.533 559.327 777.533 568.236 804.458 568.236 804.458 559.327ZM778.324 567.444 778.324 559.96 787.081 559.96C787.325 562.122 789.275 563.677 791.437 563.434 793.264 563.228 794.706 561.786 794.911 559.96L803.667 559.96 803.667 567.444Z"/><path d="M786.527 552.137 785.967 552.697 790.995 557.726 796.027 552.697 795.467 552.137 791.398 556.204C791.396 556.206 791.394 556.206 791.392 556.204 791.392 556.204 791.391 556.203 791.391 556.202L791.391 540.542 790.599 540.542 790.599 556.202C790.599 556.207 790.597 556.208 790.593 556.204Z"/></g></svg>