<svg width="96" height="96" xmlns="http://www.w3.org/2000/svg" xmlns:xlink="http://www.w3.org/1999/xlink" xml:space="preserve" overflow="hidden"><defs><clipPath id="clip0"><rect x="432" y="222" width="96" height="96"/></clipPath></defs><g clip-path="url(#clip0)" transform="translate(-432 -222)"><path d="M505 247.776 505 238 493.493 238 480 226.7 466.507 238 455 238 455 247.776 442 258.529 442 312 518 312 518 258.529ZM505 250.376 515.516 259.076 505 269.586ZM480 229.305 490.378 238 469.622 238ZM457 240 503 240 503 271.586 490.948 283.638C484.619 278.314 475.377 278.314 469.048 283.638L457 271.586ZM455 250.372 455 269.586 444.484 259.07ZM444.017 261.431 467.586 285 444.017 308.569C444.013 308.573 444.007 308.573 444.003 308.569 444.001 308.567 444 308.565 444 308.562L444 261.438C444 261.432 444.005 261.428 444.01 261.428 444.013 261.428 444.015 261.429 444.017 261.431ZM445.438 310C445.432 310 445.428 309.995 445.428 309.99 445.428 309.987 445.429 309.985 445.431 309.983L469.394 286.021C475.255 280.172 484.745 280.172 490.606 286.021L514.569 309.983C514.573 309.987 514.573 309.993 514.569 309.997 514.567 309.999 514.565 310 514.562 310ZM515.983 308.569 492.414 285 515.983 261.431C515.987 261.427 515.993 261.427 515.997 261.431 515.999 261.433 516 261.435 516 261.438L516 308.562C516 308.568 515.995 308.572 515.99 308.572 515.987 308.572 515.985 308.571 515.983 308.569Z"/><path d="M477.733 272.807C478.484 272.935 479.244 273 480.005 273 482.057 273.002 484.08 272.514 485.905 271.577 486.415 271.365 486.656 270.779 486.444 270.269 486.231 269.759 485.646 269.518 485.136 269.731 485.089 269.75 485.043 269.773 485 269.8 479.589 272.561 472.964 270.413 470.202 265.002 467.441 259.591 469.589 252.965 475 250.204 476.777 249.297 478.766 248.891 480.756 249.028 486.612 249.536 491.082 254.479 491 260.356L491 263C491 263.552 490.552 264 490 264L489.363 264C487.506 263.998 486.002 262.493 486 260.636L486 260C486.012 256.675 483.325 253.97 480 253.958 476.675 253.946 473.97 256.633 473.958 259.958 473.946 263.283 476.633 265.988 479.958 266 481.894 266.007 483.716 265.082 484.853 263.514 485.833 265.059 487.534 265.996 489.363 266L490 266C491.657 266 493 264.657 493 263L493 260.356C493.081 253.425 487.794 247.609 480.887 247.03 473.727 246.506 467.497 251.885 466.972 259.046 466.483 265.719 471.139 271.672 477.733 272.807ZM480 264C477.791 264 476 262.209 476 260 476 257.791 477.791 256 480 256 482.209 256 484 257.791 484 260 484 262.209 482.209 264 480 264Z"/></g></svg>