<svg width="38" height="38" xmlns="http://www.w3.org/2000/svg" xmlns:xlink="http://www.w3.org/1999/xlink" xml:space="preserve" overflow="hidden"><defs><clipPath id="clip0"><rect x="774" y="429" width="38" height="38"/></clipPath></defs><g clip-path="url(#clip0)" transform="translate(-774 -429)"><path d="M778.75 460.715 789.167 465.03 789.167 430.623 778.75 434.938ZM779.542 435.468 788.375 431.808 788.375 463.846 779.542 460.186Z"/><path d="M795.795 441.45 796.587 440.658 796.587 435.333 790.65 435.333 790.65 436.125 795.795 436.125 795.795 441.45Z"/><path d="M795.795 459.083 790.65 459.083 790.65 459.875 796.587 459.875 796.587 454.55 795.795 453.758 795.795 459.083Z"/><path d="M799.217 441.947 798.658 441.387 792.44 447.604 798.658 453.822 799.217 453.262 793.962 448.007C793.961 448.005 793.961 448.003 793.962 448.001 793.963 448 793.964 448 793.965 448L807.25 448 807.25 447.208 793.965 447.208C793.963 447.208 793.961 447.207 793.961 447.204 793.961 447.203 793.962 447.202 793.962 447.202Z"/></g></svg>