<svg width="38" height="38" xmlns="http://www.w3.org/2000/svg" xmlns:xlink="http://www.w3.org/1999/xlink" xml:space="preserve" overflow="hidden"><defs><clipPath id="clip0"><rect x="774" y="492" width="38" height="38"/></clipPath></defs><g clip-path="url(#clip0)" transform="translate(-774 -492)"><path d="M778.725 523.715 789.143 528.03 789.143 493.623 778.725 497.938ZM779.517 498.468 788.351 494.808 788.351 526.846 779.517 523.186Z"/><path d="M795.771 508.229 796.562 508.229 796.562 498.333 790.625 498.333 790.625 499.125 795.771 499.125 795.771 508.229Z"/><path d="M795.771 522.083 790.625 522.083 790.625 522.875 796.562 522.875 796.562 512.979 795.771 512.979 795.771 522.083Z"/><path d="M801.197 504.387 800.637 504.947 805.892 510.202C805.893 510.203 805.893 510.206 805.892 510.207 805.891 510.208 805.89 510.208 805.889 510.208L792.604 510.208 792.604 511 805.889 511C805.891 511 805.893 511.002 805.893 511.004 805.893 511.005 805.893 511.006 805.892 511.007L800.637 516.262 801.197 516.822 807.414 510.604Z"/></g></svg>