<svg width="38" height="38" xmlns="http://www.w3.org/2000/svg" xmlns:xlink="http://www.w3.org/1999/xlink" xml:space="preserve" overflow="hidden"><defs><clipPath id="clip0"><rect x="985" y="342" width="38" height="38"/></clipPath></defs><g clip-path="url(#clip0)" transform="translate(-985 -342)"><path d="M996.083 366.117 996.661 365.539C994.312 364.113 992.192 362.339 990.373 360.28 990.094 359.966 990.111 359.489 990.409 359.195 991.986 357.643 995.655 354.45 1000.22 353.202 1000.23 353.197 1000.24 353.202 1000.22 353.209 996.36 355.233 994.872 360.002 996.896 363.862 997.058 364.172 997.241 364.47 997.443 364.756L998.007 364.192C995.804 360.933 996.66 356.506 999.918 354.303 1002.33 352.674 1005.49 352.674 1007.9 354.303L1008.46 353.738C1008.19 353.544 1007.9 353.367 1007.6 353.209 1007.58 353.201 1007.58 353.197 1007.6 353.202 1007.96 353.301 1008.32 353.415 1008.66 353.536L1009.28 352.915C1007.57 352.258 1005.75 351.913 1003.91 351.896 997.404 351.896 991.917 356.602 989.859 358.625L989.859 358.625C989.256 359.216 989.223 360.176 989.784 360.808 991.613 362.876 993.735 364.665 996.083 366.117Z"/><path d="M1011.52 353.907 1017.23 348.199 1016.67 347.639 990.132 374.177 990.692 374.735 998.205 367.223C999.994 368.051 1001.94 368.493 1003.91 368.521 1010.47 368.521 1015.97 363.128 1018.04 360.81 1018.6 360.179 1018.57 359.216 1017.96 358.625 1016.05 356.748 1013.89 355.159 1011.52 353.907ZM1006.37 359.057C1006.57 359.471 1006.65 359.927 1006.62 360.384 1006.52 361.741 1005.44 362.821 1004.09 362.917 1003.63 362.947 1003.17 362.861 1002.76 362.666ZM998.811 366.617 999.019 366.409C999.311 366.643 999.62 366.856 999.943 367.046 999.961 367.056 999.959 367.059 999.94 367.052 999.554 366.925 999.18 366.776 998.809 366.618ZM999.579 365.849 1002.18 363.252C1002.83 363.63 1003.59 363.784 1004.34 363.692 1005.94 363.49 1007.19 362.233 1007.39 360.637 1007.49 359.887 1007.33 359.128 1006.96 358.474L1009.55 355.877C1011.96 358.983 1011.38 363.449 1008.28 365.852 1005.72 367.833 1002.14 367.833 999.578 365.852ZM1017.45 360.276C1015.9 362.018 1012.34 365.571 1007.88 367.053 1007.86 367.06 1007.86 367.057 1007.88 367.047 1011.65 364.869 1012.95 360.043 1010.77 356.268 1010.58 355.932 1010.36 355.612 1010.12 355.309L1010.93 354.498C1013.32 355.728 1015.5 357.313 1017.41 359.199 1017.71 359.491 1017.73 359.965 1017.45 360.276Z"/><path d="M1003.91 357.488C1004.15 357.489 1004.39 357.521 1004.61 357.584L1005.24 356.959C1003.45 356.224 1001.4 357.081 1000.66 358.873 1000.31 359.726 1000.31 360.683 1000.66 361.536L1001.29 360.911C1000.89 359.468 1001.74 357.978 1003.19 357.584 1003.42 357.52 1003.67 357.487 1003.91 357.488Z"/></g></svg>