<svg width="37" height="37" xmlns="http://www.w3.org/2000/svg" xmlns:xlink="http://www.w3.org/1999/xlink" xml:space="preserve" overflow="hidden"><defs><clipPath id="clip0"><rect x="29" y="11" width="37" height="37"/></clipPath></defs><g clip-path="url(#clip0)" transform="translate(-29 -11)"><path d="M31.531 31.0255 34.032 33.5261 35.9375 31.7215 35.9375 44.1366 45.5729 44.1404 45.5729 34.517 49.4271 34.517 49.4271 44.142 59.0625 44.1458 59.0625 31.7054 60.9776 33.5168 63.469 31.0259 47.5 15.8562ZM58.2917 43.375 50.1979 43.3715 50.1979 33.7461 44.8021 33.7461 44.8021 43.3692 36.7083 43.3661 36.7083 30.9916 47.5 20.7719 58.2917 30.9765ZM34.0466 32.4507 32.6356 31.0417 47.5 16.9185 62.3644 31.0417 60.9626 32.4415 47.5 19.7104Z"/></g></svg>