<svg width="96" height="96" xmlns="http://www.w3.org/2000/svg" xmlns:xlink="http://www.w3.org/1999/xlink" xml:space="preserve" overflow="hidden"><defs><clipPath id="clip0"><rect x="660" y="51" width="96" height="96"/></clipPath></defs><g clip-path="url(#clip0)" transform="translate(-660 -51)"><path d="M734 101.434 734 91.1123C733.98 90.7332 733.764 90.3917 733.431 90.2099L724 85.7043 724 68.4336 708 58.8336 692 68.4336 692 85.7043 682.569 90.21C682.236 90.3917 682.021 90.7331 682 91.1121L682 101.434 667 110.434 667 129.566 683 139.166 697.529 130.45 707.394 136.84C707.717 137.049 708.132 137.055 708.461 136.853L718.687 130.579 733 139.166 749 129.566 749 110.434ZM746.042 111.009 733 118.834 719.958 111.009C719.953 111.007 719.951 111.001 719.953 110.997 719.954 110.994 719.956 110.992 719.958 110.991L732 103.766 732 107.718C732 108.27 732.448 108.718 733 108.718 733.552 108.718 734 108.27 734 107.718L734 103.766 746.042 110.991C746.047 110.993 746.049 110.999 746.047 111.003 746.046 111.006 746.044 111.008 746.042 111.009ZM718.544 83.0977C718.046 82.8596 717.449 83.0705 717.21 83.5688 716.972 84.0672 717.183 84.6642 717.682 84.9023L721.506 86.73 709.015 94.2248C709.007 94.2298 709 94.2259 709 94.2162L709 78.5662 721.985 70.7755C721.993 70.7705 722 70.7744 722 70.7841L722 84.7491ZM721.042 69.0086 708 76.834 694.958 69.0086C694.953 69.0068 694.951 69.0015 694.953 68.9967 694.954 68.9943 694.956 68.9923 694.958 68.9914L708 61.166 721.042 68.9914C721.047 68.9932 721.049 68.9985 721.047 69.0033 721.046 69.0057 721.044 69.0077 721.042 69.0086ZM694.015 70.7752 707 78.5659 707 94.2159C707 94.2259 706.993 94.2295 706.985 94.2245L694.494 86.73 698.318 84.9026C698.817 84.6645 699.028 84.0675 698.79 83.5691 698.551 83.0708 697.954 82.8599 697.456 83.098L694 84.7488 694 70.7838C694 70.7741 694.007 70.77 694.015 70.7752ZM683 108.718C683.552 108.718 684 108.27 684 107.718L684 103.766 696.042 110.991C696.047 110.993 696.049 110.999 696.047 111.003 696.046 111.006 696.044 111.008 696.042 111.009L683 118.834 669.958 111.009C669.953 111.007 669.951 111.001 669.953 110.997 669.954 110.994 669.956 110.992 669.958 110.991L682 103.766 682 107.718C682 108.27 682.448 108.718 683 108.718ZM669.015 112.775 682 120.566 682 136.216C682 136.226 681.993 136.229 681.985 136.225L669 128.434 669 112.784C669 112.774 669.007 112.77 669.015 112.775ZM684 136.216 684 120.566 696.985 112.775C696.993 112.771 697 112.774 697 112.784L697 127.725 694.544 126.134C694.089 125.819 693.466 125.933 693.152 126.387 692.838 126.841 692.951 127.464 693.405 127.778 693.422 127.79 693.439 127.801 693.456 127.812L695.659 129.238 684.015 136.225C684.007 136.23 684 136.226 684 136.216ZM707.952 134.818 699 129.02 699 110.434 684 101.434 684 91.7432 692.329 87.7639 708 97.166 723.671 87.7639 732 91.7432 732 101.434 717 110.434 717 129.267ZM722.852 126.85C722.564 126.379 721.948 126.231 721.477 126.52 721.477 126.52 721.477 126.52 721.477 126.52L719 128.039 719 112.784C719 112.774 719.007 112.77 719.015 112.775L732 120.566 732 136.216C732 136.226 731.993 136.229 731.985 136.225L720.609 129.399 722.523 128.225C722.993 127.936 723.141 127.321 722.852 126.85ZM734 136.216 734 120.566 746.985 112.775C746.993 112.771 747 112.774 747 112.784L747 128.434 734.015 136.225C734.007 136.23 734 136.226 734 136.216Z"/></g></svg>