<svg width="38" height="38" xmlns="http://www.w3.org/2000/svg" xmlns:xlink="http://www.w3.org/1999/xlink" xml:space="preserve" overflow="hidden"><defs><clipPath id="clip0"><rect x="774" y="342" width="38" height="38"/></clipPath></defs><g clip-path="url(#clip0)" transform="translate(-774 -342)"><path d="M801.322 359.423 801.322 354.679C801.322 350.082 797.596 346.356 793 346.356 788.403 346.356 784.677 350.082 784.677 354.679L784.677 359.422 781.915 359.62 781.915 374.665 792.999 375.457 804.082 374.665 804.082 359.619ZM785.469 354.679C785.469 350.52 788.84 347.148 793 347.148 797.159 347.148 800.531 350.52 800.531 354.679L800.531 359.37 799.333 359.29 799.333 354.669C799.333 351.171 796.498 348.336 793 348.336 789.502 348.336 786.667 351.171 786.667 354.669L786.667 359.29 785.469 359.369ZM798.542 359.234 793 358.828 787.458 359.234 787.458 354.669C787.458 351.608 789.939 349.127 793 349.127 796.061 349.127 798.542 351.608 798.542 354.669ZM803.292 373.928 793 374.664 782.708 373.928 782.708 360.357 784.741 360.211 787.121 360.053 793 359.621 798.885 360.053 801.256 360.211 803.292 360.357Z"/><path d="M793 363.975C791.463 363.981 790.222 365.232 790.229 366.769 790.233 367.837 790.849 368.809 791.812 369.269L791.812 371.498 794.188 371.498 794.188 369.259C795.144 368.785 795.756 367.815 795.771 366.747 795.769 365.217 794.53 363.977 793 363.975ZM793.647 368.635 793.396 368.733 793.396 370.706 792.604 370.706 792.604 368.722 792.338 368.63C791.302 368.268 790.755 367.136 791.117 366.1 791.478 365.064 792.611 364.517 793.647 364.878 794.442 365.155 794.976 365.904 794.979 366.747 794.962 367.589 794.435 368.336 793.647 368.635Z"/></g></svg>