<svg width="38" height="37" xmlns="http://www.w3.org/2000/svg" xmlns:xlink="http://www.w3.org/1999/xlink" xml:space="preserve" overflow="hidden"><defs><clipPath id="clip0"><rect x="74" y="11" width="38" height="37"/></clipPath></defs><g clip-path="url(#clip0)" transform="translate(-74 -11)"><path d="M21.9568 9.3398C21.7918 9.07753 21.5163 8.90486 21.2083 8.87075 20.9146 8.83656 20.6213 8.93816 20.4117 9.14671L6.39329 22.6748 4.26541 24.7133 6.7286 28.9818 9.54908 28.1034 13.3073 27.0374 13.2834 27.0593 15.0116 28.9652 20.4564 27.4621 20.9574 24.8864 20.9189 24.879 28.2772 22.792 28.3204 22.777C28.6158 22.6515 28.8418 22.4033 28.939 22.0975 29.029 21.8229 28.9942 21.5228 28.8438 21.2762ZM5.2355 24.8505 6.58446 23.5594 8.86304 27.5087 7.09012 28.0614ZM19.7911 26.8435 15.2625 28.0946 14.0985 26.8111 20.1303 25.1003ZM28.2063 21.8639C28.1799 21.9474 28.121 22.0168 28.0429 22.0566L9.62 27.2817 7.15526 23.0094 20.9532 9.69708C20.9977 9.65126 21.0608 9.62852 21.1243 9.63542 21.1944 9.64278 21.2579 9.68036 21.2981 9.73832L28.1878 21.6731C28.2221 21.7308 28.2288 21.8007 28.2063 21.8639Z" transform="matrix(1.02703 0 0 1 74 11)"/><path d="M28.7041 11.9868 33.1411 11.9868 33.1411 12.7621 28.7041 12.7621Z" transform="matrix(0.889479 -0.48727 0.500439 0.866072 71.8617 27.6473)"/><path d="M31.089 14.555 31.8615 14.555 31.8615 18.9735 31.089 18.9735Z" transform="matrix(0.276708 -0.960954 0.986926 0.269426 81.0173 53.4648)"/><path d="M25.117 9.07967 29.5356 9.07967 29.5356 9.85214 25.117 9.85214Z" transform="matrix(0.276708 -0.960954 0.986926 0.269426 85.1142 44.1589)"/></g></svg>