<svg width="38" height="38" xmlns="http://www.w3.org/2000/svg" xmlns:xlink="http://www.w3.org/1999/xlink" xml:space="preserve" overflow="hidden"><defs><clipPath id="clip0"><rect x="774" y="253" width="38" height="38"/></clipPath></defs><g clip-path="url(#clip0)" transform="translate(-774 -253)"><path d="M793 259.333C796.061 259.333 798.542 261.814 798.542 264.875 798.542 267.936 796.061 270.417 793 270.417 789.939 270.417 787.458 267.936 787.458 264.875 787.461 261.816 789.941 259.336 793 259.333M793 258.542C789.502 258.542 786.667 261.377 786.667 264.875 786.667 268.373 789.502 271.208 793 271.208 796.498 271.208 799.333 268.373 799.333 264.875 799.333 261.377 796.498 258.542 793 258.542Z"/><path d="M805.667 285.458 804.875 285.458 804.875 279.323C804.856 278.482 804.46 277.694 803.796 277.178 802.06 275.846 800.073 274.879 797.953 274.335 796.348 273.842 794.679 273.588 793 273.583 791.321 273.612 789.654 273.865 788.043 274.335 785.945 274.95 783.966 275.913 782.189 277.185 781.532 277.703 781.141 278.487 781.125 279.323L781.125 285.458 780.333 285.458 780.333 279.323C780.353 278.242 780.858 277.227 781.709 276.56 783.566 275.227 785.635 274.217 787.829 273.574 789.51 273.084 791.249 272.821 793 272.792 794.754 272.796 796.498 273.06 798.176 273.575 800.396 274.147 802.477 275.163 804.294 276.562 805.144 277.229 805.648 278.243 805.667 279.323Z"/></g></svg>